<?xml version="1.0" encoding="UTF-8"?><svg id="Layer_1" xmlns="http://www.w3.org/2000/svg" xmlns:xlink="http://www.w3.org/1999/xlink" viewBox="0 0 692.25 202.29"><defs><style>.cls-1{fill:none;}.cls-2{clip-path:url(#clippath);}</style><clipPath id="clippath"><rect class="cls-1" width="692.25" height="202.29"/></clipPath></defs><g class="cls-2"><path d="M152.63,9.37V0h33.71v18.62h-33.71v-9.25ZM364.34,65.85V0h33.71v131.64h-33.71v-65.79ZM152.69,85.51v-46.14h33.71v92.33h-33.71v-46.19ZM518.87,71.69c-.47-10.18-3.12-13.76-11.33-15.44-10.87-1.68-21.97-1.85-32.89-.58-4.16.23-8.21,1.79-11.39,4.51-2.54,3.58-3.93,7.86-3.87,12.26l-.17,3.35h59.9l-.18-4.1h-.06ZM478.75,132.68c-18.67-.98-29.48-3.01-37.4-6.94-4.8-2.14-8.67-5.95-10.93-10.75-2.72-5.67-4.45-11.74-5.09-17.98-.75-8.33-.75-16.65,0-24.98.69-8.44,4.22-16.42,10.06-22.55,2.37-2.25,5.15-3.99,8.15-5.15,8.85-3.3,18.1-5.2,27.52-5.67,5.84-.52,31.45-.52,37.12,0,15.43,1.45,25.67,4.22,31.45,8.5,6.65,5.61,10.81,13.59,11.56,22.2.69,6.36,1.1,12.78,1.16,19.14v1.1h-93.37l-.23,1.1c-.23,3.99,0,7.98.75,11.85.75,3.87,2.95,7.34,6.24,9.6,4.62,2.95,16.19,4.39,30.76,3.76,15.03-.64,19.31-2.2,21.28-7.86.4-1.33.69-2.66.75-4.05l.18-2.31h33.65l-.18,3.35c.12,4.16-1.04,8.21-3.29,11.68-5.66,8.32-18.16,13.3-38.79,15.38-4.33.46-26.25.87-31.33.52v.06ZM256.86,132.56c-29.31-1.62-40.47-6.53-44.23-19.54-.52-2.14-.81-4.34-.81-6.53l-.17-4.39h17.34c9.54,0,17.34.06,17.34.17s-.23.98-.46,2.02c-1.85,7.05,3.3,11.16,16.13,12.95,8.33.58,16.71.52,24.97-.12,9.37-1.33,15.15-3.93,17-7.8,1.04-2.54.98-5.38-.12-7.86-1.85-3.35-5.15-5.61-8.96-6.19-3.99-.75-8.04-1.04-12.08-.87-13.47,0-26.94-.75-40.35-2.2-13.88-1.85-20.75-4.8-25.03-10.58-3.01-4.28-4.57-9.37-4.45-14.63-1.21-8.09,2.14-16.19,8.73-21.04,5.26-3.76,14.16-5.84,30.52-7.17,6.24-.52,31.33-.69,38.85-.29,25.55,1.33,35.61,4.97,40.06,14.4,1.33,3.01,2.08,6.24,2.25,9.54l.17,2.72h-16.36l-16.36-.17-.69-2.78c-1.91-7.8-4.45-8.73-24.92-8.73-4.86-.23-9.77,0-14.63.52-4.39.4-8.61,2.14-11.97,5.09-1.5,1.79-2.14,4.16-1.73,6.42.23,4.62,1.62,6.88,4.74,7.75,9.94,1.45,20,2.2,30.06,2.26,26.94.98,41.8,3.29,48.1,7.4,2.66,1.68,4.8,4.1,6.19,6.94,1.5,2.95,2.37,6.19,2.54,9.48.69,5.95-.35,12.03-3.06,17.4-2.08,3.24-4.86,6.07-8.09,8.15-6.82,3.93-16.65,6.13-33.24,7.46-5.26.4-31.39.58-37.46.23h.17ZM47.87,132.68c-10.7-.12-21.27-1.62-31.57-4.45C7.17,125.74.64,117.65.18,108.23c-.17-1.56-.23-3.06-.12-4.62l.17-1.5h17.29c9.48,0,17.29,0,17.23.06-.06.06-.23.81-.46,1.68-.98,2.66-.46,5.67,1.39,7.86,3.58,4.05,12.26,6.07,26.25,6.07s23.82-1.97,28.33-5.78c2.89-2.66,3.7-6.94,1.97-10.46-1.79-3.41-5.09-5.72-8.85-6.24-3.99-.75-8.09-1.04-12.14-.87-28.68-.75-37.81-1.39-47.7-3.41-5.9-.64-11.39-3.18-15.73-7.23-1.56-1.39-2.83-3.12-3.76-5.03-2.14-4.05-3.01-8.61-2.54-13.18-.23-2.78,0-5.55.64-8.27.46-1.5,1.04-3.01,1.73-4.45,1.91-3.24,4.63-5.95,7.8-7.98,8.67-3.82,18.04-5.84,27.46-6.01,7.34-.64,38.56-.75,45.61-.17,9.02.17,17.98,2.02,26.3,5.49,4.86,2.66,8.38,7.17,9.77,12.49.58,2.49.92,4.97,1.04,7.46v.98h-32.72l-.52-2.43c-.98-4.62-2.78-6.94-6.07-7.92-5.43-1.21-10.98-1.68-16.59-1.39-6.53-.46-13.12-.06-19.54,1.1-3.29.52-6.36,1.97-8.85,4.11-1.85,1.56-2.78,3.99-2.43,6.42.06,4.57,1.68,7.28,4.86,8.21,10,1.5,20.06,2.25,30.12,2.25,26.3.98,40.93,3.12,47.64,7.11,2.89,1.79,5.26,4.39,6.76,7.46,3.06,8.21,3.01,17.23-.12,25.44-5.61,11.04-18.1,15.55-47.41,17.05-5.09.23-23.53.29-29.14.06v.12ZM595.82,172.63l-3.76-.29-2.43-.17v-16.48l4.86.17c3.99.4,7.98-.06,11.74-1.39,6.01-2.2,10.87-6.71,13.59-12.49,1.56-3.18,2.77-6.53,3.7-9.94l.17-.98-2.02.12c-1.1.06-4.91.23-8.44.29l-6.42.17-2.31-4.8c-1.27-2.66-3.76-7.75-5.49-11.33s-4.16-8.5-5.32-10.93c-1.15-2.43-3.76-7.75-5.78-11.85-2.02-4.1-4.57-9.37-5.78-11.85-1.21-2.49-3.7-7.63-5.61-11.56-11.16-22.78-14.63-30.01-14.63-30.35,0-.17,7.06-.29,17.81-.29h17.81l3.41,7.75c8.67,19.95,15.03,34.46,18.33,41.91,1.97,4.45,4.51,10.35,5.61,13.01,3.76,9.19,6.65,15.78,6.94,15.9,1.21-2.95,2.26-5.95,3.06-9.02,1.56-5.03,3.64-11.56,4.68-14.57,4.57-13.24,8.61-24.98,12.31-35.96,2.19-6.53,4.51-13.3,5.14-15.09l1.16-3.24h17.05c9.37-.12,17.05-.06,17.05,0s-1.5,4.16-3.35,9.08c-1.85,4.91-4.91,13.07-6.76,18.15l-9.37,25.15c-3.3,8.79-6.71,17.98-7.63,20.41-12.03,32.37-12.95,34.69-16.76,40.82-8.21,13.3-17.63,18.1-37.87,19.37-4.33.29-11.44.35-14.63.12l-.06.17ZM382.95,183.61v-17.92h6.47v35.79h-6.47v-17.86ZM360.12,181.24c1.73-.46,3.18-1.68,3.93-3.29.46-1.79.29-3.7-.52-5.38-1.33-1.45-3.18-2.31-5.15-2.43-1.21-.17-5.67-.29-9.94-.29h-7.75v12.2l8.96-.17c3.53.17,7.05,0,10.52-.64h-.06ZM334.16,183.61v-17.92h12.78c13.59,0,14.92.12,18.33,1.45,3.53,1.1,5.9,4.45,5.78,8.15.12,3.29-1.73,6.42-4.74,7.86l-1.27.64,1.5.69c1.73.81,3.01,2.37,3.41,4.22.12.58.29,3.06.46,5.49.29,4.57.58,5.55,1.79,5.95.35.11.58.4.58.75,0,.52-.23.58-3.99.58h-3.99l-.17-.81c-.12-.46-.23-.98-.29-1.21-.06-.23-.23-2.37-.4-4.8-.29-4.51-.46-5.15-1.73-6.53-1.45-1.56-2.89-1.73-12.72-1.91l-8.96-.12v15.44h-6.48v-17.86l.12-.06ZM308.66,179.16c-1.79-4.16-3.35-7.52-3.41-7.52s-6.48,13.3-7,14.68c-.12.35,1.1.4,6.76.4h6.94l-3.3-7.57ZM284.67,200.55c.46-.87,6.36-12.89,13.64-27.87l3.41-7h7.52l2.66,5.72c6.94,14.63,13.99,29.77,13.99,29.95-1.16.17-2.31.23-3.53.17h-3.53l-2.31-5.2-2.31-5.2h-18.38l-2.37,5.15-2.37,5.15h-6.94l.46-.87h.06ZM273.46,181.53c2.77-.46,4.8-2.95,4.68-5.78.17-2.02-1.04-3.87-2.89-4.57-4.05-1.33-8.33-1.73-12.55-1.33h-6.01v12.14h7.63c3.06.17,6.13,0,9.13-.4v-.06ZM249.93,183.61v-17.92h12.14c13.64,0,14.86.12,17.92,1.97,1.79.87,3.24,2.31,3.99,4.16.69,1.21,1.04,2.66.92,4.1-.06,4.28-2.83,8.09-6.94,9.42l-2.2.87-9.54.12-9.54.12v15.03h-6.82v-17.86h.06ZM411.92,201.94c-4.34-.64-8.21-3.12-10.64-6.82-.75-1.56-1.1-3.3-1.1-5.03.11-.29.87-.4,3.06-.4h2.95l.17,1.21c.75,4.74,5.14,7.17,12.89,7.11,3.87.41,7.69-.69,10.75-3.06,1.45-1.91,1.16-4.57-.64-6.13-3.29-1.85-6.94-2.95-10.7-3.12-4.1-.41-8.15-1.33-12.03-2.83-3.01-1.04-4.97-3.93-4.86-7.17,0-7.63,7.98-12.08,19.66-10.93,3.01.12,5.9.87,8.61,2.14,3.12,1.56,5.32,4.57,5.84,7.98l.17,1.39h-3.12c-2.77,0-3.12,0-3.12-.52-.35-1.73-1.27-3.35-2.66-4.51-4.8-3.47-15.9-2.83-18.38,1.1-.98,1.5-.98,3.47,0,4.97,1.27,1.39,2.83,1.85,11.39,3.35,10.41,1.85,12.83,2.66,14.86,5.03,1.5,1.56,2.2,3.64,1.97,5.78.17,1.45-.12,2.89-.81,4.16-1.16,2.02-2.95,3.64-5.14,4.45-3.93,1.68-8.27,2.43-12.55,2.14-2.25,0-4.51-.11-6.76-.35l.17.06Z"/></g></svg>