<svg xmlns="http://www.w3.org/2000/svg" viewBox="0 0 222.17 59.19"><title>Superdry logo</title><path d="M499.63,482.51a6.05,6.05,0,0,1,1.46,0,13,13,0,0,0-1.88,8.07,14.23,14.23,0,0,0,1.88,5.48c-.49,0-1,0-1.44,0a12,12,0,0,1-2.52-6.29,11.11,11.11,0,0,1,2.5-7.21Z" transform="translate(-400.91 -482.4)" style="fill:#010101;stroke:#010101;stroke-miterlimit:10;stroke-width:0.09375px"/><path d="M554.71,482.48c.5,0,1,0,1.53,0a12.27,12.27,0,0,1,2.53,6.91,12.54,12.54,0,0,1-2.55,6.66h-1.49a21.94,21.94,0,0,0,1.27-2.87,12.38,12.38,0,0,0-.44-9c-.27-.59-.57-1.14-.86-1.71Z" transform="translate(-400.91 -482.4)" style="fill:#010101;stroke:#010101;stroke-miterlimit:10;stroke-width:0.09375px"/><path d="M436.65,482.6h1.56c-.08.87-.05,1.74-.05,2.63l.86,0c0,.47,0,.94,0,1.39h-.82a5.59,5.59,0,0,0,1.19,2.16c0-.75,0-1.49,0-2.25.59,0,1.19,0,1.78,0,.29-.65.64-1.27.92-1.93-1,0-2,0-3.07,0v-1.44c3.12.05,6.25,0,9.37,0,0,.49,0,1,0,1.46-1.56-.12-3.14-.05-4.71-.05-.17.35-.34.69-.47,1.06h1.41c-.13,2.08-.13,4.16-.39,6.22a2.88,2.88,0,0,1-.87,2,19.6,19.6,0,0,1-2,.15,10.58,10.58,0,0,1-.34-1.44,4.15,4.15,0,0,0,1.51,0c.5-.47.44-1.19.49-1.81,0-1.27.17-2.53.17-3.81-.29,0-.55,0-.82,0,0,1.71,0,3.44,0,5.16-1,.05-2,0-3,0,0-1,0-2,0-3-.17.34-.32.67-.5,1a11.27,11.27,0,0,0-.67-1.26c-.05,2.41-.08,4.83,0,7.23-.49,0-1,0-1.44,0,.07-2.16,0-4.31,0-6.47a12,12,0,0,1-1.31,2.92,13.76,13.76,0,0,1-.74-1.39c.37-.72.8-1.41,1.14-2.13a15.74,15.74,0,0,0,.72-2.45,8.54,8.54,0,0,0-1.46.1v-1.59h1.54c0-.86,0-1.71-.05-2.55Z" transform="translate(-400.91 -482.4)" style="fill:#010101;stroke:#010101;stroke-miterlimit:10;stroke-width:0.09375px"/><path d="M456.7,482.6h1.71c0,.35,0,.72,0,1.09,1.78.05,3.59.07,5.37,0v1.39h-2.68v1c.91,0,1.83,0,2.73-.05v1.41c-.91-.08-1.83,0-2.73-.05,0,.77,0,1.53,0,2.28h-6a20.41,20.41,0,0,0,.07-2.26c-.72,0-1.44,0-2.15,0a23.15,23.15,0,0,1-.79,6.61c-.25.7-.57,1.38-.84,2.06a15.33,15.33,0,0,1-1.19-1.36,10.06,10.06,0,0,0,1-4,49,49,0,0,0,.22-7c1.74,0,3.5.07,5.25-.05,0-.35,0-.72,0-1.07Z" transform="translate(-400.91 -482.4)" style="fill:#010101;stroke:#010101;stroke-miterlimit:10;stroke-width:0.09375px"/><path d="M468.22,482.66h1.58a13.51,13.51,0,0,0-.07,1.43c.82,0,1.64,0,2.46,0,0,.45,0,.92,0,1.38-.8-.07-1.63,0-2.43,0,0,.3,0,.62,0,.92.65,0,1.31,0,2,0,.05.08.12.25.17.32a10.64,10.64,0,0,0,1.79-4l1.63.23c-.15.52-.29,1.06-.45,1.59,1.44-.05,2.87,0,4.29-.05V486c-1.64-.08-3.3,0-4.95-.05a10.89,10.89,0,0,1-.89,1.39c1.22-.05,2.45,0,3.66,0,.27,0,.55-.05.79.08.3.32.55.69.84,1a26.37,26.37,0,0,0-4.09,4.56,3.82,3.82,0,0,0-.39.94c.23.5.86.49,1.32.49a4.14,4.14,0,0,0,1.93-.23,3.14,3.14,0,0,0,.34-2.08c.5.25,1.16.29,1.54.67-.12.92-.15,2-.91,2.7-1,.6-2.15.34-3.22.39-.86,0-2,.05-2.5-.74a3.42,3.42,0,0,1,.5-2.68c.67-1.46,2.1-2.35,3-3.62-1.09,0-2.18-.05-3.25.05,0-.32,0-.64,0-1l-.44.32c-.23-.22-.47-.45-.72-.67v4.13c-.64,0-1.29,0-1.95,0,0,.35,0,.69,0,1,.75,0,1.53,0,2.28,0v1.46a11.44,11.44,0,0,0-2.4-.1,7.55,7.55,0,0,0,.15,2.21h-1.59a16.43,16.43,0,0,0,.08-2.23,16.43,16.43,0,0,0-2.57.12c0-.5,0-1,0-1.48.84.08,1.68,0,2.53.05,0-.35,0-.7,0-1.07h-2.15q.08-2.62,0-5.23c.72,0,1.43,0,2.15,0v-.92c-.87,0-1.74,0-2.62,0V484c.87.07,1.74,0,2.62,0a7.67,7.67,0,0,0-.1-1.39Z" transform="translate(-400.91 -482.4)" style="fill:#010101;stroke:#010101;stroke-miterlimit:10;stroke-width:0.09375px"/><path d="M518,482.75c.65.05,1.29.13,1.95.18-.2.77-.4,1.53-.55,2.3.79-.1,1.58-.23,2.35-.39,0,.55.05,1.12.05,1.68-1,.17-1.95.25-2.92.37a48,48,0,0,1-2.87,7c-.57-.35-1.14-.67-1.69-1a22.73,22.73,0,0,0,2.8-6c-.79,0-1.56,0-2.35,0V485.3c.92,0,1.86,0,2.78,0a16.57,16.57,0,0,0,.45-2.55Z" transform="translate(-400.91 -482.4)" style="fill:#010101;stroke:#010101;stroke-miterlimit:10;stroke-width:0.09375px"/><path d="M482.91,482.88c.54,0,1.06,0,1.59,0a29.12,29.12,0,0,0-.05,3.42,3,3,0,0,0,.8-1.17c.3.3.55.65.84,1a4.32,4.32,0,0,0-.49.74,30,30,0,0,0,3.69.07c0,1,0,1.95,0,2.92l.64,0c0-1,0-1.91,0-2.88q2.06,0,4.13,0v3c-1.21,0-2.43,0-3.64,0a6.87,6.87,0,0,1,0,.82c1.29,0,2.58,0,3.87,0v1.31c-1,0-2.08,0-3.12,0a9,9,0,0,0,3.54,2.21l-.82,1.43a13.52,13.52,0,0,1-3.49-2.75c0,1.09,0,2.18,0,3.25h-1.53c0-1.06,0-2.1,0-3.15a17.88,17.88,0,0,1-1.51,1.48c-.65.45-1.36.82-2,1.22a5.63,5.63,0,0,1-.69-1.19,8.52,8.52,0,0,0,3.52-2.52,18.09,18.09,0,0,0-2.7.1l.42.49c-.25.42-.5.86-.75,1.26a8.12,8.12,0,0,1-1.38-1.56,9.18,9.18,0,0,1-1.81,3.64c-.37-.4-.72-.77-1.07-1.17a9.61,9.61,0,0,0,1.51-2.72,13.75,13.75,0,0,0,.52-3.77c0-1.83.13-3.67,0-5.5Z" transform="translate(-400.91 -482.4)" style="fill:#010101;stroke:#010101;stroke-miterlimit:10;stroke-width:0.09375px"/><path d="M534.21,483.12c.6-.1,1.21-.17,1.81-.25.32.75.5,1.56.84,2.3l.13.07a23.75,23.75,0,0,0,3.54-.89l.25,1.81c-1.09.22-2.2.47-3.3.6a30.15,30.15,0,0,0,2.62,4.34c-.54.27-1.09.49-1.64.75a3.33,3.33,0,0,0-2.13-.8,7.64,7.64,0,0,0-3.54.17,1.66,1.66,0,0,0-1.11,1.51c.12.75.91,1,1.54,1.19a8.27,8.27,0,0,0,2.65.08,12.27,12.27,0,0,0,3.47-.87c.08.6.22,1.19.25,1.79-.15.22-.45.2-.65.3a14,14,0,0,1-5.15.52,5,5,0,0,1-2.5-.69,2.79,2.79,0,0,1-1.27-3.42,3.86,3.86,0,0,1,1.86-1.83c1.73-.87,3.66-.15,5.47-.05a19,19,0,0,1-1.59-2.7,48.77,48.77,0,0,1-6.05.29c0-.57-.08-1.12-.13-1.69a54.46,54.46,0,0,0,5.48-.18c-.27-.79-.59-1.54-.84-2.35Z" transform="translate(-400.91 -482.4)" style="fill:#010101;stroke:#010101;stroke-miterlimit:10;stroke-width:0.09375px"/><path d="M486.57,483.13h6.2c0,1.09,0,2.2,0,3.29-2,0-4.09,0-6.15,0a31,31,0,0,0-.05-3.3Z" transform="translate(-400.91 -482.4)" style="fill:#010101;stroke:#010101;stroke-miterlimit:10;stroke-width:0.09375px"/><path d="M503.08,483.17h2c-.2,1.22-.13,2.46-.23,3.69s0,2.23-.08,3.35a8.61,8.61,0,0,0,.23,2.62c.13.52.65.8,1.09,1a5.44,5.44,0,0,0,3.25-.55,7.48,7.48,0,0,0,2.18-4.41c.59.4,1.17.8,1.76,1.19a16.14,16.14,0,0,1-1.32,3.14,5.6,5.6,0,0,1-4.36,2.52,5.25,5.25,0,0,1-3.3-.74,4,4,0,0,1-1.41-3.27c0-2.87.1-5.72.15-8.57Z" transform="translate(-400.91 -482.4)" style="fill:#010101;stroke:#010101;stroke-miterlimit:10;stroke-width:0.09375px"/><path d="M543,484.17H545c.08,1.12-.12,2.23,0,3.35a15.82,15.82,0,0,0,.79,4.68c.17.34.45,1,.94.67a7.87,7.87,0,0,0,1.24-3.19c.5.42,1,.89,1.44,1.34a8.5,8.5,0,0,1-1.84,3.66,1.66,1.66,0,0,1-2,.12,4,4,0,0,1-1.61-2.46,27.31,27.31,0,0,1-.86-8.17Z" transform="translate(-400.91 -482.4)" style="fill:#010101;stroke:#010101;stroke-miterlimit:10;stroke-width:0.09375px"/><path d="M488,484.36c1.09,0,2.16,0,3.25,0v.94c-1.09,0-2.16,0-3.25,0v-1Z" transform="translate(-400.91 -482.4)" style="fill:#fefefe;stroke:#fefefe;stroke-miterlimit:10;stroke-width:0.09375px"/><path d="M523.46,484.64a21.82,21.82,0,0,1,4.19,2c-.25.49-.52,1-.77,1.46a23.91,23.91,0,0,0-4.29-2c.29-.49.59-1,.87-1.43Z" transform="translate(-400.91 -482.4)" style="fill:#010101;stroke:#010101;stroke-miterlimit:10;stroke-width:0.09375px"/><path d="M550.27,484.88c.22-.15.35.15.47.29a17.4,17.4,0,0,1,2.82,7.78c-.54.18-1.06.4-1.59.62a13.43,13.43,0,0,0-1.73-6.05c-.39-.69-.87-1.29-1.27-2,.44-.22.86-.45,1.31-.67Z" transform="translate(-400.91 -482.4)" style="fill:#010101;stroke:#010101;stroke-miterlimit:10;stroke-width:0.09375px"/><path d="M456.7,485.08q1.41,0,2.82,0a7,7,0,0,1,0,1c-1,0-1.93,0-2.88,0,0-.34,0-.67,0-1Z" transform="translate(-400.91 -482.4)" style="fill:#fff;stroke:#fff;stroke-miterlimit:10;stroke-width:0.09375px"/><path d="M453.13,485.1q1,0,2.06,0v1q-1,0-2.06,0v-1Z" transform="translate(-400.91 -482.4)" style="fill:#fff;stroke:#fff;stroke-miterlimit:10;stroke-width:0.09375px"/><path d="M481.35,485.68c.4.05.79.1,1.19.13a15.42,15.42,0,0,1-.4,4.29c-.44-.15-.84-.37-1.24-.55a16.64,16.64,0,0,0,.45-3.87Z" transform="translate(-400.91 -482.4)" style="fill:#010101;stroke:#010101;stroke-miterlimit:10;stroke-width:0.09375px"/><path d="M444.88,486c.94.07,1.88,0,2.82,0a4.44,4.44,0,0,1,.54.84,17.32,17.32,0,0,1-1.11,4,10.13,10.13,0,0,0,1.54,1.63l-.74,1.24a11.3,11.3,0,0,1-1.53-1.58,12.73,12.73,0,0,1-1.43,1.58c-.25-.39-.49-.77-.72-1.16a6.91,6.91,0,0,0,1.36-1.59c-.2-.94-.79-1.81-.92-2.78.27-.23.82-.29.86-.69a1.06,1.06,0,0,0-.64-.12,13,13,0,0,1,0-1.39Z" transform="translate(-400.91 -482.4)" style="fill:#020202;stroke:#020202;stroke-miterlimit:10;stroke-width:0.09375px"/><path d="M484.37,488.08a6.1,6.1,0,0,1,1-1.06c.05,1,0,2,0,3.05h3.47c0,.25,0,.49,0,.74-1.21,0-2.41,0-3.61,0,0,.44,0,.87,0,1.31a5.87,5.87,0,0,1-1-1.38c0-.89.07-1.76.15-2.63Z" transform="translate(-400.91 -482.4)" style="fill:#fefefe;stroke:#fefefe;stroke-miterlimit:10;stroke-width:0.09375px"/><path d="M456.69,487.43c1,0,1.89,0,2.83,0,0,.34.05.69,0,1-1,0-1.93,0-2.88,0,0-.34,0-.67,0-1Z" transform="translate(-400.91 -482.4)" style="fill:#fefefe;stroke:#fefefe;stroke-miterlimit:10;stroke-width:0.09375px"/><path d="M445.6,487.43l1.21,0a6.82,6.82,0,0,1-.49,2c-.27-.65-.49-1.34-.72-2Z" transform="translate(-400.91 -482.4)" style="fill:#fdfdfd;stroke:#fdfdfd;stroke-miterlimit:10;stroke-width:0.09375px"/><path d="M467.65,487.58c.91,0,1.81,0,2.72,0v.79c-.91,0-1.81,0-2.72,0v-.77Z" transform="translate(-400.91 -482.4)" style="fill:#fefefe;stroke:#fefefe;stroke-miterlimit:10;stroke-width:0.09375px"/><path d="M409.33,488.82a23.28,23.28,0,0,1,7.75-1.07,17.61,17.61,0,0,1,9.54,2.15,11.21,11.21,0,0,1,4.66,5.08,15.68,15.68,0,0,1,1.27,5.53c-2.65,0-5.32,0-8,0a7.64,7.64,0,0,0-.75-2.65,5.78,5.78,0,0,0-3.17-2.7,14,14,0,0,0-5.6-.57,6.37,6.37,0,0,0-4.19,1.64,4.73,4.73,0,0,0-1.06,4.59,3,3,0,0,0,1.53,1.81,10.5,10.5,0,0,0,2.82,1c2.25.59,4.51,1,6.72,1.66,3.25.89,6.67,1.61,9.42,3.69a9.22,9.22,0,0,1,3.5,6.32,13.46,13.46,0,0,1-2.62,10.09,13.14,13.14,0,0,1-6.37,4.06,26.06,26.06,0,0,1-9.11.92,18.94,18.94,0,0,1-9.19-2.83,11.88,11.88,0,0,1-4.88-6.71,19.4,19.4,0,0,1-.69-4c2.75,0,5.48,0,8.22,0a7.16,7.16,0,0,0,2.31,4.61,10.56,10.56,0,0,0,6.93,1.93,9.27,9.27,0,0,0,5.53-1.31,4.73,4.73,0,0,0,1.39-5.75,5.63,5.63,0,0,0-3.3-2.38,60.39,60.39,0,0,0-6-1.58c-2.06-.5-4.18-.84-6.19-1.54a13.92,13.92,0,0,1-4.63-2.23,9.82,9.82,0,0,1-3.52-6.47,12.91,12.91,0,0,1,1.73-8.94,11.88,11.88,0,0,1,5.89-4.36Z" transform="translate(-400.91 -482.4)" style="stroke:#000;stroke-miterlimit:10;stroke-width:0.09375px"/><path d="M440.5,487.76a5.17,5.17,0,0,0,.72,0v3.12h-.72c0-1,0-2.08,0-3.12Z" transform="translate(-400.91 -482.4)" style="fill:#fff;stroke:#fff;stroke-miterlimit:10;stroke-width:0.09375px"/><path d="M486.68,488c.47,0,.94,0,1.43,0,0,.35,0,.69,0,1h-1.44c0-.35,0-.69,0-1Z" transform="translate(-400.91 -482.4)" style="fill:#fefefe;stroke:#fefefe;stroke-miterlimit:10;stroke-width:0.09375px"/><path d="M522.79,487.9c.5-.25,1.17,0,1.73-.12a12.55,12.55,0,0,0-.08,3.27c0,.54.62.59,1,.86a9.5,9.5,0,0,1,2.18,1.54c-.23.55-.5,1.11-.79,1.64a12.38,12.38,0,0,0-2.31-1.86,2.63,2.63,0,0,1-1.32,2.43,4.78,4.78,0,0,1-3.84-.17,2.4,2.4,0,0,1-.27-3.92c1-.82,2.43-.62,3.66-.54a19.61,19.61,0,0,1,.1-3.14Z" transform="translate(-400.91 -482.4)" style="fill:#010101;stroke:#010101;stroke-miterlimit:10;stroke-width:0.09375px"/><path d="M491.13,488a8,8,0,0,1,1.56-.05c.17.3,0,.69.08,1-.55,0-1.09,0-1.64,0a9.08,9.08,0,0,0,0-1Z" transform="translate(-400.91 -482.4)" style="fill:#fefefe;stroke:#fefefe;stroke-miterlimit:10;stroke-width:0.09375px"/><path d="M562.93,488.8c2.58,0,5.16,0,7.75,0q0,20.25,0,40.51h-7.61c0-1.31,0-2.62,0-3.92-.49.44-.79,1.07-1.26,1.54a9.4,9.4,0,0,1-5.89,3.29,11.25,11.25,0,0,1-6.42-.87,11.79,11.79,0,0,1-6.14-6.44,18.25,18.25,0,0,1-1.44-5.32,23.39,23.39,0,0,1,.8-9.93,14.2,14.2,0,0,1,5-7.34,11,11,0,0,1,2.7-1.34,13.09,13.09,0,0,1,5.35-.42,9.64,9.64,0,0,1,6.36,3.54c.25.3.5.62.77.92,0-4.73,0-9.47,0-14.22Z" transform="translate(-400.91 -482.4)" style="stroke:#000;stroke-miterlimit:10;stroke-width:0.09375px"/><path d="M467.65,489.56c.91,0,1.81,0,2.72,0v.79c-.91,0-1.81,0-2.72,0v-.77Z" transform="translate(-400.91 -482.4)" style="fill:#fefefe;stroke:#fefefe;stroke-miterlimit:10;stroke-width:0.09375px"/><path d="M453.63,490.53c1.78.15,3.57,0,5.37.07.84,0,1.68,0,2.5-.05.25.27.49.55.74.82a15,15,0,0,1-1.39,1.53,12.67,12.67,0,0,0-1.29,1,11.9,11.9,0,0,0,4.34.67c-.18.55-.39,1.11-.59,1.64a18.55,18.55,0,0,1-5.3-1.46,16.66,16.66,0,0,1-5,1.44c-.17-.5-.34-1-.52-1.53a11.18,11.18,0,0,0,4.07-.74,17.67,17.67,0,0,1-1.95-2.1h-1v-1.31Z" transform="translate(-400.91 -482.4)" style="fill:#010101;stroke:#010101;stroke-miterlimit:10;stroke-width:0.09375px"/><path d="M456.45,491.79c1.19,0,2.36,0,3.54,0a12.07,12.07,0,0,1-1.84,1.48,5.12,5.12,0,0,1-1.69-1.48Z" transform="translate(-400.91 -482.4)" style="fill:#fefefe;stroke:#fefefe;stroke-miterlimit:10;stroke-width:0.09375px"/><path d="M520.59,492.46a4.58,4.58,0,0,1,2.13.13c.12.62,0,1.53-.74,1.73a3.61,3.61,0,0,1-1.84-.17c-.64-.45-.23-1.53.45-1.69Z" transform="translate(-400.91 -482.4)" style="fill:#fefefe;stroke:#fefefe;stroke-miterlimit:10;stroke-width:0.09375px"/><path d="M438.71,494.22c3.27,0,6.52.05,9.79,0v1.44c-2.48-.07-5,0-7.45,0a12.18,12.18,0,0,0-2.35.1v-1.49Z" transform="translate(-400.91 -482.4)" style="fill:#010101;stroke:#010101;stroke-miterlimit:10;stroke-width:0.09375px"/><path d="M475.33,499.84a10.61,10.61,0,0,1,6.79-1.31,11,11,0,0,1,7.38,4.11,16.41,16.41,0,0,1,3.1,7,23.62,23.62,0,0,1-.39,11,13.84,13.84,0,0,1-5.65,8.1,10.72,10.72,0,0,1-5.6,1.63,9.74,9.74,0,0,1-7.14-2.45,10.64,10.64,0,0,1-1.88-2.28c0,5.23,0,10.48,0,15.71h-7.75q-.05-20.93,0-41.87h7.58c0,1.31,0,2.63,0,3.94a13.84,13.84,0,0,1,3.59-3.54Z" transform="translate(-400.91 -482.4)" style="stroke:#000;stroke-miterlimit:10;stroke-width:0.09375px"/><path d="M500.38,500.76a14.2,14.2,0,0,1,8.92-2.36,13.55,13.55,0,0,1,7.88,2.38,12.53,12.53,0,0,1,4.43,5.8,25.75,25.75,0,0,1,1.26,9.91c-6.67,0-13.35,0-20,0a8.65,8.65,0,0,0,1.73,5.3,5.41,5.41,0,0,0,4.41,1.79,5.69,5.69,0,0,0,4.21-1.32,6.76,6.76,0,0,0,1.38-2h7.95a13.47,13.47,0,0,1-4.16,6.81A14.33,14.33,0,0,1,510,530.3a21.89,21.89,0,0,1-3.92-.13,12.75,12.75,0,0,1-7.46-3.92,15.46,15.46,0,0,1-3.62-7.63,22.81,22.81,0,0,1,.69-11.39,12.82,12.82,0,0,1,4.73-6.47Z" transform="translate(-400.91 -482.4)" style="stroke:#000;stroke-miterlimit:10;stroke-width:0.09375px"/><path d="M538.33,498.93a10.29,10.29,0,0,1,3.86-.29c0,2.7.07,5.4,0,8.08-2.31,0-4.86-.27-6.88,1.07a6.39,6.39,0,0,0-2.35,5.21v16.3H525c0-10,0-19.92,0-29.88,2.46,0,4.93,0,7.39,0,0,1.64-.05,3.29,0,4.93.42-.54.67-1.16,1.07-1.69a8.88,8.88,0,0,1,4.83-3.76Z" transform="translate(-400.91 -482.4)" style="stroke:#000;stroke-miterlimit:10;stroke-width:0.09375px"/><path d="M583,500.37a8.67,8.67,0,0,1,6.61-1.73c0,2.7,0,5.38,0,8.08-2,0-4.21-.2-6.14.64a5,5,0,0,0-2.62,2.92,9.91,9.91,0,0,0-.5,3.57V529.3q-4,.05-7.95,0c0-9.94,0-19.9,0-29.85,2.46,0,4.93,0,7.39,0,0,1.68,0,3.37,0,5a14.22,14.22,0,0,1,3.22-4.11Z" transform="translate(-400.91 -482.4)" style="stroke:#000;stroke-miterlimit:10;stroke-width:0.09375px"/><path d="M435.46,499.43h8V518a7.12,7.12,0,0,0,1,4,4.12,4.12,0,0,0,3.47,1.46,6,6,0,0,0,5-2.15,6.28,6.28,0,0,0,1.29-4.13c0-5.92,0-11.84,0-17.76,2.67,0,5.35,0,8,0v29.88c-2.62,0-5.25,0-7.86,0,0-1.12,0-2.25,0-3.37a6.65,6.65,0,0,0-.69.69,10.66,10.66,0,0,1-7.9,3.5,15.93,15.93,0,0,1-3.34-.18,8.13,8.13,0,0,1-4.76-2.62,10.78,10.78,0,0,1-2.2-6.93v-21Z" transform="translate(-400.91 -482.4)" style="stroke:#000;stroke-miterlimit:10;stroke-width:0.09375px"/><path d="M590.26,499.43H599c2.08,7.18,4.21,14.32,6.29,21.48.54-1.31.8-2.7,1.22-4,1.66-5.8,3.35-11.6,5-17.42,2.78,0,5.57,0,8.35,0q-6,17.38-12.07,34.73a16,16,0,0,1-2.31,4.75,6.84,6.84,0,0,1-3.59,2.28c-.92.17-1.86.18-2.8.29a25.55,25.55,0,0,1-4.53-.13c0-2,0-4,0-6,0-.1.08-.3.12-.4,1.49,0,3.1.27,4.49-.45a4.09,4.09,0,0,0,1.86-4.68q-5.36-15.17-10.75-30.35Z" transform="translate(-400.91 -482.4)" style="stroke:#000;stroke-miterlimit:10;stroke-width:0.09375px"/><path d="M504.59,506.64a5.18,5.18,0,0,1,4.21-1.56,5.43,5.43,0,0,1,4.46,1.79,7.16,7.16,0,0,1,1.39,4.33c-3.94,0-7.88,0-11.82,0a7.33,7.33,0,0,1,1.76-4.58Z" transform="translate(-400.91 -482.4)" style="fill:#fff;stroke:#fff;stroke-miterlimit:10;stroke-width:0.09375px"/><path d="M477,505.4a6.93,6.93,0,0,1,5.11.92,7.93,7.93,0,0,1,2.75,5.21,15.13,15.13,0,0,1-.8,8.45,5.83,5.83,0,0,1-5.62,3.42,5.73,5.73,0,0,1-5-2.65,12.46,12.46,0,0,1-1.46-7.08,11.53,11.53,0,0,1,1.76-6.25,5.46,5.46,0,0,1,3.3-2Z" transform="translate(-400.91 -482.4)" style="fill:#fff;stroke:#fff;stroke-miterlimit:10;stroke-width:0.09375px"/><path d="M555.15,505.39a6.47,6.47,0,0,1,5.18,1.38,7.93,7.93,0,0,1,2.28,4.24,17.32,17.32,0,0,1,.05,6.37,8.35,8.35,0,0,1-2.06,4.51,5.53,5.53,0,0,1-4.18,1.63,5.65,5.65,0,0,1-4.64-2c-1.64-1.91-2-4.56-2.06-7s.34-5.23,2-7.21a5.45,5.45,0,0,1,3.42-1.93Z" transform="translate(-400.91 -482.4)" style="fill:#fff;stroke:#fff;stroke-miterlimit:10;stroke-width:0.09375px"/><path d="M616.44,523.13H623c0,2.2,0,4.41,0,6.61h-6.57c0-2.2,0-4.41,0-6.61Z" transform="translate(-400.91 -482.4)" style="stroke:#000;stroke-miterlimit:10;stroke-width:0.09375px"/></svg>